<svg xmlns="http://www.w3.org/2000/svg" width="1600" height="1600" viewBox="0 0 1600 1600">
<rect width="1600" height="1600" fill="white"/>
<rect x="90" y="90" width="1420" height="1420" fill="black"/>
<rect x="310" y="310" width="980" height="980" fill="white"/>
<rect x="355" y="355" width="890" height="890" rx="45" fill="#f5fff8" stroke="#2e8453" stroke-width="12"/>
<text x="800" y="420" text-anchor="middle" font-family="sans-serif" font-size="72" font-weight="700" fill="#16603a">レインボープラン ながい</text>
<text x="800" y="500" text-anchor="middle" font-family="sans-serif" font-size="38" font-weight="700" fill="#23704e">Rainbow Plan Nagai</text>
<path d="M 395 900 A 430 430 0 0 1 1205 900" fill="none" stroke="#e85358" stroke-width="34"/>
<path d="M 438 880 A 386 386 0 0 1 1162 880" fill="none" stroke="#f59d40" stroke-width="34"/>
<path d="M 482 860 A 342 342 0 0 1 1118 860" fill="none" stroke="#f5dd56" stroke-width="34"/>
<path d="M 526 840 A 298 298 0 0 1 1074 840" fill="none" stroke="#56b065" stroke-width="34"/>
<path d="M 570 820 A 254 254 0 0 1 1030 820" fill="none" stroke="#50a2d6" stroke-width="34"/>
<line x1="800" y1="825" x2="800" y2="1030" stroke="#2d844d" stroke-width="20" stroke-linecap="round"/>
<ellipse cx="720" cy="900" rx="105" ry="45" transform="rotate(-35 720 900)" fill="#439c55"/>
<ellipse cx="885" cy="880" rx="105" ry="45" transform="rotate(35 885 880)" fill="#439c55"/>
<circle cx="800" cy="1035" r="220" fill="none" stroke="#3a975c" stroke-width="20" stroke-dasharray="300 95"/>
<text x="800" y="855" text-anchor="middle" font-family="sans-serif" font-size="36" font-weight="700" fill="#235e39">生ごみ</text>
<text x="1060" y="1045" text-anchor="middle" font-family="sans-serif" font-size="36" font-weight="700" fill="#235e39">たい肥</text>
<text x="800" y="1225" text-anchor="middle" font-family="sans-serif" font-size="36" font-weight="700" fill="#235e39">作物</text>
<text x="525" y="1045" text-anchor="middle" font-family="sans-serif" font-size="36" font-weight="700" fill="#235e39">土づくり</text>
<text x="800" y="1325" text-anchor="middle" font-family="sans-serif" font-size="42" font-weight="700" fill="#111">AR MARKER</text>
<text x="800" y="1385" text-anchor="middle" font-family="sans-serif" font-size="30" fill="#333">印刷してカメラに写してください</text>
</svg>
