<svg xmlns="http://www.w3.org/2000/svg" width="1600" height="1600" viewBox="0 0 1600 1600" role="img" aria-labelledby="title desc">
  <title id="title">レインボープラン印刷用ガイド</title>
  <desc id="desc">長井市レインボープランの循環を示す印刷用ビジュアルです。</desc>
  <rect width="1600" height="1600" fill="white"/>
  <rect x="90" y="90" width="1420" height="1420" fill="black"/>
  <rect x="310" y="310" width="980" height="980" fill="white"/>
  <rect x="355" y="355" width="890" height="890" rx="45" fill="#f5fff8" stroke="#2e8453" stroke-width="12"/>

  <text x="800" y="430" text-anchor="middle" font-family="sans-serif" font-size="72" font-weight="700" fill="#16603a">レインボープラン ながい</text>
  <text x="800" y="500" text-anchor="middle" font-family="sans-serif" font-size="38" font-weight="700" fill="#23704e">Rainbow Plan Nagai</text>

  <path d="M 410 965 A 390 390 0 0 1 1190 965" fill="none" stroke="#e85358" stroke-width="32"/>
  <path d="M 455 940 A 345 345 0 0 1 1145 940" fill="none" stroke="#f59d40" stroke-width="32"/>
  <path d="M 500 915 A 300 300 0 0 1 1100 915" fill="none" stroke="#f5dd56" stroke-width="32"/>
  <path d="M 545 890 A 255 255 0 0 1 1055 890" fill="none" stroke="#56b065" stroke-width="32"/>
  <path d="M 590 865 A 210 210 0 0 1 1010 865" fill="none" stroke="#50a2d6" stroke-width="32"/>

  <line x1="800" y1="845" x2="800" y2="1020" stroke="#2d844d" stroke-width="18" stroke-linecap="round"/>
  <ellipse cx="720" cy="890" rx="98" ry="42" transform="rotate(-35 720 890)" fill="#439c55"/>
  <ellipse cx="885" cy="875" rx="98" ry="42" transform="rotate(35 885 875)" fill="#439c55"/>
  <circle cx="800" cy="1025" r="178" fill="none" stroke="#3a975c" stroke-width="18" stroke-dasharray="230 82"/>

  <text x="800" y="820" text-anchor="middle" font-family="sans-serif" font-size="34" font-weight="700" fill="#235e39">生ごみ</text>
  <text x="1038" y="1040" text-anchor="middle" font-family="sans-serif" font-size="34" font-weight="700" fill="#235e39">たい肥</text>
  <text x="800" y="1192" text-anchor="middle" font-family="sans-serif" font-size="34" font-weight="700" fill="#235e39">農作物</text>
  <text x="562" y="1040" text-anchor="middle" font-family="sans-serif" font-size="34" font-weight="700" fill="#235e39">土づくり</text>

  <text x="800" y="1358" text-anchor="middle" font-family="sans-serif" font-size="42" font-weight="700" fill="#ffffff">AR GUIDE</text>
  <text x="800" y="1415" text-anchor="middle" font-family="sans-serif" font-size="30" fill="#ffffff">Hiroマーカー認識版の紹介用ビジュアル</text>
</svg>
